<svg xmlns="http://www.w3.org/2000/svg" xmlns:xlink="http://www.w3.org/1999/xlink" xmlns:lucid="lucid" width="2382" height="881"><g transform="translate(1551 500.5)" lucid:page-tab-id="0_0"><path d="M-1200-460a20 20 0 0 1 20-20h200a20 20 0 0 1 20 20v322a20 20 0 0 1-20 20h-200a20 20 0 0 1-20-20z" stroke="#3a414a" fill="#fff"/><use xlink:href="#a" transform="matrix(1,0,0,1,-1195,-475) translate(87.84450617283952 19.555555555555554)"/><use xlink:href="#b" transform="matrix(1,0,0,1,-1195,-475) translate(115 48.888888888888886)"/><use xlink:href="#c" transform="matrix(1,0,0,1,-1195,-475) translate(11.925925925925952 78.22222222222221)"/><use xlink:href="#d" transform="matrix(1,0,0,1,-1195,-475) translate(78.40123456790124 78.22222222222221)"/><use xlink:href="#e" transform="matrix(1,0,0,1,-1195,-475) translate(147.59259259259258 78.22222222222221)"/><use xlink:href="#f" transform="matrix(1,0,0,1,-1195,-475) translate(182.83333333333331 78.22222222222221)"/><use xlink:href="#g" transform="matrix(1,0,0,1,-1195,-475) translate(32.296296296296305 107.55555555555554)"/><use xlink:href="#h" transform="matrix(1,0,0,1,-1195,-475) translate(95.98765432098764 107.55555555555554)"/><use xlink:href="#i" transform="matrix(1,0,0,1,-1195,-475) translate(34.367283950617306 136.88888888888886)"/><use xlink:href="#j" transform="matrix(1,0,0,1,-1195,-475) translate(100.7746913580247 136.88888888888886)"/><use xlink:href="#k" transform="matrix(1,0,0,1,-1195,-475) translate(0.5864197530864601 166.22222222222217)"/><use xlink:href="#l" transform="matrix(1,0,0,1,-1195,-475) translate(71.06790123456793 166.22222222222217)"/><use xlink:href="#m" transform="matrix(1,0,0,1,-1195,-475) translate(180.66049382716048 166.22222222222217)"/><use xlink:href="#n" transform="matrix(1,0,0,1,-1195,-475) translate(5.305555555555571 195.5555555555555)"/><use xlink:href="#o" transform="matrix(1,0,0,1,-1195,-475) translate(68.92901234567901 195.5555555555555)"/><use xlink:href="#p" transform="matrix(1,0,0,1,-1195,-475) translate(34.40123456790127 224.8888888888888)"/><use xlink:href="#q" transform="matrix(1,0,0,1,-1195,-475) translate(84.51234567901236 224.8888888888888)"/><use xlink:href="#r" transform="matrix(1,0,0,1,-1195,-475) translate(76.3641975308642 254.22222222222211)"/><use xlink:href="#s" transform="matrix(1,0,0,1,-1195,-475) translate(115 283.55555555555543)"/><use xlink:href="#t" transform="matrix(1,0,0,1,-1195,-475) translate(28.324074074074076 312.88888888888874)"/><use xlink:href="#u" transform="matrix(1,0,0,1,-1195,-475) translate(112.3179012345679 312.88888888888874)"/><use xlink:href="#v" transform="matrix(1,0,0,1,-1195,-475) translate(47.51117283950618 342.22222222222206)"/><path d="M-840 60a20 20 0 0 1 20-20h200a20 20 0 0 1 20 20v280a20 20 0 0 1-20 20h-200a20 20 0 0 1-20-20z" stroke="#3a414a" fill="#fff"/><use xlink:href="#w" transform="matrix(1,0,0,1,-835,45) translate(87.84450617283952 19.555555555555554)"/><use xlink:href="#b" transform="matrix(1,0,0,1,-835,45) translate(115 48.888888888888886)"/><use xlink:href="#x" transform="matrix(1,0,0,1,-835,45) translate(35.75925925925927 78.22222222222221)"/><use xlink:href="#y" transform="matrix(1,0,0,1,-835,45) translate(157.70987654320987 78.22222222222221)"/><use xlink:href="#z" transform="matrix(1,0,0,1,-835,45) translate(57.35185185185187 107.55555555555554)"/><path d="M-600 60a20 20 0 0 1 20-20h200a20 20 0 0 1 20 20v280a20 20 0 0 1-20 20h-200a20 20 0 0 1-20-20z" stroke="#3a414a" fill="#fff"/><use xlink:href="#A" transform="matrix(1,0,0,1,-595,45) translate(87.84450617283952 19.555555555555554)"/><use xlink:href="#b" transform="matrix(1,0,0,1,-595,45) translate(115 48.888888888888886)"/><use xlink:href="#B" transform="matrix(1,0,0,1,-595,45) translate(66.92592592592594 78.22222222222221)"/><use xlink:href="#C" transform="matrix(1,0,0,1,-595,45) translate(112.96296296296296 78.22222222222221)"/><use xlink:href="#D" transform="matrix(1,0,0,1,-595,45) translate(18.10493827160495 107.55555555555554)"/><use xlink:href="#E" transform="matrix(1,0,0,1,-595,45) translate(175.2283950617284 107.55555555555554)"/><use xlink:href="#F" transform="matrix(1,0,0,1,-595,45) translate(46.48765432098769 136.88888888888886)"/><path d="M-360 60a20 20 0 0 1 20-20h200a20 20 0 0 1 20 20v280a20 20 0 0 1-20 20h-200a20 20 0 0 1-20-20z" stroke="#3a414a" fill="#fff"/><use xlink:href="#G" transform="matrix(1,0,0,1,-354.99999999999994,45) translate(87.84450617283952 19.555555555555554)"/><use xlink:href="#b" transform="matrix(1,0,0,1,-354.99999999999994,45) translate(115 48.888888888888886)"/><use xlink:href="#H" transform="matrix(1,0,0,1,-354.99999999999994,45) translate(18.783950617283978 78.22222222222221)"/><use xlink:href="#I" transform="matrix(1,0,0,1,-354.99999999999994,45) translate(68.89506172839506 78.22222222222221)"/><use xlink:href="#J" transform="matrix(1,0,0,1,-354.99999999999994,45) translate(29.61419753086423 107.55555555555554)"/><use xlink:href="#K" transform="matrix(1,0,0,1,-354.99999999999994,45) translate(180.01543209876542 107.55555555555554)"/><use xlink:href="#L" transform="matrix(1,0,0,1,-354.99999999999994,45) translate(52.05555555555557 136.88888888888886)"/><path d="M-960-458a20 20 0 0 1 20-20h200a20 20 0 0 1 20 20v320a20 20 0 0 1-20 20h-200a20 20 0 0 1-20-20z" stroke="#3a414a" fill="#fff"/><use xlink:href="#M" transform="matrix(1,0,0,1,-955,-473.00000000000017) translate(87.84450617283952 19.555555555555554)"/><use xlink:href="#b" transform="matrix(1,0,0,1,-955,-473.00000000000017) translate(115 48.888888888888886)"/><use xlink:href="#c" transform="matrix(1,0,0,1,-955,-473.00000000000017) translate(11.925925925925952 78.22222222222221)"/><use xlink:href="#d" transform="matrix(1,0,0,1,-955,-473.00000000000017) translate(78.40123456790124 78.22222222222221)"/><use xlink:href="#e" transform="matrix(1,0,0,1,-955,-473.00000000000017) translate(147.59259259259258 78.22222222222221)"/><use xlink:href="#f" transform="matrix(1,0,0,1,-955,-473.00000000000017) translate(182.83333333333331 78.22222222222221)"/><use xlink:href="#g" transform="matrix(1,0,0,1,-955,-473.00000000000017) translate(35.69135802469137 107.55555555555554)"/><use xlink:href="#N" transform="matrix(1,0,0,1,-955,-473.00000000000017) translate(99.38271604938271 107.55555555555554)"/><path d="M-1080 60a20 20 0 0 1 20-20h200a20 20 0 0 1 20 20v280a20 20 0 0 1-20 20h-200a20 20 0 0 1-20-20z" stroke="#3a414a" fill="#fff"/><use xlink:href="#O" transform="matrix(1,0,0,1,-1075,45) translate(88.52351851851853 19.555555555555554)"/><use xlink:href="#b" transform="matrix(1,0,0,1,-1075,45) translate(115 48.888888888888886)"/><use xlink:href="#P" transform="matrix(1,0,0,1,-1075,45) translate(33.654320987654344 78.22222222222221)"/><use xlink:href="#Q" transform="matrix(1,0,0,1,-1075,45) translate(128.51234567901236 78.22222222222221)"/><use xlink:href="#R" transform="matrix(1,0,0,1,-1075,45) translate(61.39197530864199 107.55555555555554)"/><use xlink:href="#s" transform="matrix(1,0,0,1,-1075,45) translate(115 136.88888888888886)"/><use xlink:href="#S" transform="matrix(1,0,0,1,-1075,45) translate(56.74074074074076 166.22222222222217)"/><use xlink:href="#T" transform="matrix(1,0,0,1,-1075,45) translate(104.06790123456791 166.22222222222217)"/><path d="M-720-460a20 20 0 0 1 20-20h200a20 20 0 0 1 20 20v320a20 20 0 0 1-20 20h-200a20 20 0 0 1-20-20z" stroke="#3a414a" fill="#fff"/><use xlink:href="#U" transform="matrix(1,0,0,1,-715,-475) translate(87.84450617283952 19.555555555555554)"/><use xlink:href="#b" transform="matrix(1,0,0,1,-715,-475) translate(115 48.888888888888886)"/><use xlink:href="#c" transform="matrix(1,0,0,1,-715,-475) translate(11.925925925925952 78.22222222222221)"/><use xlink:href="#d" transform="matrix(1,0,0,1,-715,-475) translate(78.40123456790124 78.22222222222221)"/><use xlink:href="#e" transform="matrix(1,0,0,1,-715,-475) translate(147.59259259259258 78.22222222222221)"/><use xlink:href="#f" transform="matrix(1,0,0,1,-715,-475) translate(182.83333333333331 78.22222222222221)"/><use xlink:href="#g" transform="matrix(1,0,0,1,-715,-475) translate(35.69135802469137 107.55555555555554)"/><use xlink:href="#N" transform="matrix(1,0,0,1,-715,-475) translate(99.38271604938271 107.55555555555554)"/><path d="M-480-460a20 20 0 0 1 20-20h200a20 20 0 0 1 20 20v320a20 20 0 0 1-20 20h-200a20 20 0 0 1-20-20z" stroke="#3a414a" fill="#fff"/><g><use xlink:href="#V" transform="matrix(1,0,0,1,-475,-475) translate(87.84450617283952 19.555555555555554)"/><use xlink:href="#b" transform="matrix(1,0,0,1,-475,-475) translate(115 48.888888888888886)"/><use xlink:href="#c" transform="matrix(1,0,0,1,-475,-475) translate(11.925925925925952 78.22222222222221)"/><use xlink:href="#d" transform="matrix(1,0,0,1,-475,-475) translate(78.40123456790124 78.22222222222221)"/><use xlink:href="#e" transform="matrix(1,0,0,1,-475,-475) translate(147.59259259259258 78.22222222222221)"/><use xlink:href="#f" transform="matrix(1,0,0,1,-475,-475) translate(182.83333333333331 78.22222222222221)"/><use xlink:href="#g" transform="matrix(1,0,0,1,-475,-475) translate(35.69135802469137 107.55555555555554)"/><use xlink:href="#N" transform="matrix(1,0,0,1,-475,-475) translate(99.38271604938271 107.55555555555554)"/></g><path d="M-240-460a20 20 0 0 1 20-20h200a20 20 0 0 1 20 20v320a20 20 0 0 1-20 20h-200a20 20 0 0 1-20-20z" stroke="#3a414a" fill="#fff"/><g><use xlink:href="#W" transform="matrix(1,0,0,1,-234.9999999999999,-475) translate(87.84450617283952 19.555555555555554)"/><use xlink:href="#b" transform="matrix(1,0,0,1,-234.9999999999999,-475) translate(115 48.888888888888886)"/><use xlink:href="#c" transform="matrix(1,0,0,1,-234.9999999999999,-475) translate(11.925925925925952 78.22222222222221)"/><use xlink:href="#d" transform="matrix(1,0,0,1,-234.9999999999999,-475) translate(78.40123456790124 78.22222222222221)"/><use xlink:href="#e" transform="matrix(1,0,0,1,-234.9999999999999,-475) translate(147.59259259259258 78.22222222222221)"/><use xlink:href="#f" transform="matrix(1,0,0,1,-234.9999999999999,-475) translate(182.83333333333331 78.22222222222221)"/><use xlink:href="#g" transform="matrix(1,0,0,1,-234.9999999999999,-475) translate(35.69135802469137 107.55555555555554)"/><use xlink:href="#N" transform="matrix(1,0,0,1,-234.9999999999999,-475) translate(99.38271604938271 107.55555555555554)"/></g><path d="M0-460a20 20 0 0 1 20-20h200a20 20 0 0 1 20 20v320a20 20 0 0 1-20 20H20a20 20 0 0 1-20-20z" stroke="#3a414a" fill="#fff"/><g><use xlink:href="#X" transform="matrix(1,0,0,1,5.000000000000014,-475) translate(87.84450617283952 19.555555555555554)"/><use xlink:href="#b" transform="matrix(1,0,0,1,5.000000000000014,-475) translate(115 48.888888888888886)"/><use xlink:href="#c" transform="matrix(1,0,0,1,5.000000000000014,-475) translate(11.925925925925952 78.22222222222221)"/><use xlink:href="#d" transform="matrix(1,0,0,1,5.000000000000014,-475) translate(78.40123456790124 78.22222222222221)"/><use xlink:href="#e" transform="matrix(1,0,0,1,5.000000000000014,-475) translate(147.59259259259258 78.22222222222221)"/><use xlink:href="#f" transform="matrix(1,0,0,1,5.000000000000014,-475) translate(182.83333333333331 78.22222222222221)"/><use xlink:href="#g" transform="matrix(1,0,0,1,5.000000000000014,-475) translate(35.69135802469137 107.55555555555554)"/><use xlink:href="#N" transform="matrix(1,0,0,1,5.000000000000014,-475) translate(99.38271604938271 107.55555555555554)"/></g><path d="M240-460a20 20 0 0 1 20-20h200a20 20 0 0 1 20 20v320a20 20 0 0 1-20 20H260a20 20 0 0 1-20-20z" stroke="#3a414a" fill="#fff"/><g><use xlink:href="#Y" transform="matrix(1,0,0,1,245,-475) translate(87.84450617283952 19.555555555555554)"/><use xlink:href="#b" transform="matrix(1,0,0,1,245,-475) translate(115 48.888888888888886)"/><use xlink:href="#c" transform="matrix(1,0,0,1,245,-475) translate(11.925925925925952 78.22222222222221)"/><use xlink:href="#d" transform="matrix(1,0,0,1,245,-475) translate(78.40123456790124 78.22222222222221)"/><use xlink:href="#e" transform="matrix(1,0,0,1,245,-475) translate(147.59259259259258 78.22222222222221)"/><use xlink:href="#f" transform="matrix(1,0,0,1,245,-475) translate(182.83333333333331 78.22222222222221)"/><use xlink:href="#g" transform="matrix(1,0,0,1,245,-475) translate(35.69135802469137 107.55555555555554)"/><use xlink:href="#N" transform="matrix(1,0,0,1,245,-475) translate(99.38271604938271 107.55555555555554)"/></g><path d="M480-460a20 20 0 0 1 20-20h200a20 20 0 0 1 20 20v320a20 20 0 0 1-20 20H500a20 20 0 0 1-20-20z" stroke="#3a414a" fill="#fff"/><g><use xlink:href="#Z" transform="matrix(1,0,0,1,485,-475) translate(87.84450617283952 19.555555555555554)"/><use xlink:href="#b" transform="matrix(1,0,0,1,485,-475) translate(115 48.888888888888886)"/><use xlink:href="#c" transform="matrix(1,0,0,1,485,-475) translate(11.925925925925952 78.22222222222221)"/><use xlink:href="#d" transform="matrix(1,0,0,1,485,-475) translate(78.40123456790124 78.22222222222221)"/><use xlink:href="#e" transform="matrix(1,0,0,1,485,-475) translate(147.59259259259258 78.22222222222221)"/><use xlink:href="#f" transform="matrix(1,0,0,1,485,-475) translate(182.83333333333331 78.22222222222221)"/><use xlink:href="#g" transform="matrix(1,0,0,1,485,-475) translate(35.69135802469137 107.55555555555554)"/><use xlink:href="#N" transform="matrix(1,0,0,1,485,-475) translate(99.38271604938271 107.55555555555554)"/></g><path d="M-120 60a20 20 0 0 1 20-20h200a20 20 0 0 1 20 20v280a20 20 0 0 1-20 20h-200a20 20 0 0 1-20-20z" stroke="#3a414a" fill="#fff"/><g><use xlink:href="#aa" transform="matrix(1,0,0,1,-114.99999999999994,45.00000000000003) translate(87.84450617283952 19.555555555555554)"/><use xlink:href="#b" transform="matrix(1,0,0,1,-114.99999999999994,45.00000000000003) translate(115 48.888888888888886)"/><use xlink:href="#H" transform="matrix(1,0,0,1,-114.99999999999994,45.00000000000003) translate(18.783950617283978 78.22222222222221)"/><use xlink:href="#I" transform="matrix(1,0,0,1,-114.99999999999994,45.00000000000003) translate(68.89506172839506 78.22222222222221)"/><use xlink:href="#J" transform="matrix(1,0,0,1,-114.99999999999994,45.00000000000003) translate(29.61419753086423 107.55555555555554)"/><use xlink:href="#K" transform="matrix(1,0,0,1,-114.99999999999994,45.00000000000003) translate(180.01543209876542 107.55555555555554)"/><use xlink:href="#L" transform="matrix(1,0,0,1,-114.99999999999994,45.00000000000003) translate(52.05555555555557 136.88888888888886)"/></g><path d="M120 60a20 20 0 0 1 20-20h200a20 20 0 0 1 20 20v280a20 20 0 0 1-20 20H140a20 20 0 0 1-20-20z" stroke="#3a414a" fill="#fff"/><g><use xlink:href="#ab" transform="matrix(1,0,0,1,125.00000000000006,45.000000000000085) translate(87.84450617283952 19.555555555555554)"/><use xlink:href="#b" transform="matrix(1,0,0,1,125.00000000000006,45.000000000000085) translate(115 48.888888888888886)"/><use xlink:href="#H" transform="matrix(1,0,0,1,125.00000000000006,45.000000000000085) translate(18.783950617283978 78.22222222222221)"/><use xlink:href="#I" transform="matrix(1,0,0,1,125.00000000000006,45.000000000000085) translate(68.89506172839506 78.22222222222221)"/><use xlink:href="#J" transform="matrix(1,0,0,1,125.00000000000006,45.000000000000085) translate(29.61419753086423 107.55555555555554)"/><use xlink:href="#K" transform="matrix(1,0,0,1,125.00000000000006,45.000000000000085) translate(180.01543209876542 107.55555555555554)"/><use xlink:href="#L" transform="matrix(1,0,0,1,125.00000000000006,45.000000000000085) translate(52.05555555555557 136.88888888888886)"/></g><path d="M360 60a20 20 0 0 1 20-20h200a20 20 0 0 1 20 20v280a20 20 0 0 1-20 20H380a20 20 0 0 1-20-20z" stroke="#3a414a" fill="#fff"/><g><use xlink:href="#ac" transform="matrix(1,0,0,1,365.00000000000006,45.000000000000114) translate(87.84450617283952 19.555555555555554)"/><use xlink:href="#b" transform="matrix(1,0,0,1,365.00000000000006,45.000000000000114) translate(115 48.888888888888886)"/><use xlink:href="#H" transform="matrix(1,0,0,1,365.00000000000006,45.000000000000114) translate(18.783950617283978 78.22222222222221)"/><use xlink:href="#I" transform="matrix(1,0,0,1,365.00000000000006,45.000000000000114) translate(68.89506172839506 78.22222222222221)"/><use xlink:href="#J" transform="matrix(1,0,0,1,365.00000000000006,45.000000000000114) translate(29.61419753086423 107.55555555555554)"/><use xlink:href="#K" transform="matrix(1,0,0,1,365.00000000000006,45.000000000000114) translate(180.01543209876542 107.55555555555554)"/><use xlink:href="#L" transform="matrix(1,0,0,1,365.00000000000006,45.000000000000114) translate(52.05555555555557 136.88888888888886)"/></g><path d="M-1320 60a20 20 0 0 1 20-20h200a20 20 0 0 1 20 20v280a20 20 0 0 1-20 20h-200a20 20 0 0 1-20-20z" stroke="#3a414a" fill="#fff"/><g><use xlink:href="#ad" transform="matrix(1,0,0,1,-1315,45) translate(87.84450617283952 19.555555555555554)"/><use xlink:href="#b" transform="matrix(1,0,0,1,-1315,45) translate(115 48.888888888888886)"/><use xlink:href="#ae" transform="matrix(1,0,0,1,-1315,45) translate(41.22530864197532 78.22222222222221)"/><use xlink:href="#af" transform="matrix(1,0,0,1,-1315,45) translate(138.66358024691357 78.22222222222221)"/><use xlink:href="#ag" transform="matrix(1,0,0,1,-1315,45) translate(58.09876543209878 107.55555555555554)"/><use xlink:href="#s" transform="matrix(1,0,0,1,-1315,45) translate(115 136.88888888888886)"/><use xlink:href="#ah" transform="matrix(1,0,0,1,-1315,45) translate(66.28086419753087 166.22222222222217)"/><use xlink:href="#ai" transform="matrix(1,0,0,1,-1315,45) translate(43.19444444444446 195.5555555555555)"/><use xlink:href="#aj" transform="matrix(1,0,0,1,-1315,45) translate(11.993827160493865 224.8888888888888)"/><use xlink:href="#ak" transform="matrix(1,0,0,1,-1315,45) translate(110.85802469135803 224.8888888888888)"/></g><path d="M-1440-460a20 20 0 0 1 20-20h200a20 20 0 0 1 20 20v320a20 20 0 0 1-20 20h-200a20 20 0 0 1-20-20z" stroke="#3a414a" fill="#fff"/><g><use xlink:href="#al" transform="matrix(1,0,0,1,-1435,-475) translate(87.84450617283952 19.555555555555554)"/><use xlink:href="#b" transform="matrix(1,0,0,1,-1435,-475) translate(115 48.888888888888886)"/><use xlink:href="#am" transform="matrix(1,0,0,1,-1435,-475) translate(27.509259259259295 78.22222222222221)"/><use xlink:href="#an" transform="matrix(1,0,0,1,-1435,-475) translate(98.66975308641977 78.22222222222221)"/><use xlink:href="#ao" transform="matrix(1,0,0,1,-1435,-475) translate(43.87345679012347 107.55555555555554)"/><use xlink:href="#ap" transform="matrix(1,0,0,1,-1435,-475) translate(100.77469135802468 107.55555555555554)"/><use xlink:href="#s" transform="matrix(1,0,0,1,-1435,-475) translate(115 136.88888888888886)"/><use xlink:href="#aq" transform="matrix(1,0,0,1,-1435,-475) translate(26.86419753086423 166.22222222222217)"/><use xlink:href="#ar" transform="matrix(1,0,0,1,-1435,-475) translate(90.62345679012347 166.22222222222217)"/><use xlink:href="#as" transform="matrix(1,0,0,1,-1435,-475) translate(7.172839506172878 195.5555555555555)"/><use xlink:href="#at" transform="matrix(1,0,0,1,-1435,-475) translate(110.31481481481482 195.5555555555555)"/><use xlink:href="#au" transform="matrix(1,0,0,1,-1435,-475) translate(160.42592592592592 195.5555555555555)"/><use xlink:href="#av" transform="matrix(1,0,0,1,-1435,-475) translate(97.65123456790124 224.8888888888888)"/></g><path d="M-1494.06-40h2258.6" stroke="#3a414a" stroke-width="10" fill="none"/><path d="M-1510.18-40l12.9-7.64v15.28zM783.82-40l-14.27 4.63v-9.27z" stroke="#3a414a" stroke-width="10" fill="#3a414a"/><path d="M-1320-117v74.5" stroke="#3a414a" stroke-width="5" fill="none"/><path d="M-1317.53-116.94h-4.94v-2.56h4.94z" stroke="#3a414a" stroke-width=".05" fill="#3a414a"/><path d="M-1320-42.56V-40M-1080-115v72" stroke="#3a414a" stroke-width="5" fill="none"/><path d="M-1077.53-114.94h-4.94v-2.56h4.94z" stroke="#3a414a" stroke-width=".05" fill="#3a414a"/><path d="M-1080-43.06v2.56M-840-115v71.5" stroke="#3a414a" stroke-width="5" fill="none"/><path d="M-837.52-114.94h-4.96v-2.56h4.96z" stroke="#3a414a" stroke-width=".05" fill="#3a414a"/><path d="M-840-43.56V-41M-600-117v73" stroke="#3a414a" stroke-width="5" fill="none"/><path d="M-597.52-116.94h-4.96v-2.56h4.96z" stroke="#3a414a" stroke-width=".05" fill="#3a414a"/><path d="M-600-44.06v2.56M-360-117v72.5" stroke="#3a414a" stroke-width="5" fill="none"/><path d="M-357.52-116.94h-4.96v-2.56h4.96z" stroke="#3a414a" stroke-width=".05" fill="#3a414a"/><path d="M-360-44.56V-42M-120-117v72" stroke="#3a414a" stroke-width="5" fill="none"/><path d="M-117.53-116.94h-4.94v-2.56h4.94z" stroke="#3a414a" stroke-width=".05" fill="#3a414a"/><path d="M-120-45.06v2.56M120-117v71.5" stroke="#3a414a" stroke-width="5" fill="none"/><path d="M122.47-116.94h-4.94v-2.56h4.94z" stroke="#3a414a" stroke-width=".05" fill="#3a414a"/><path d="M120-45.56V-43M360-117v71" stroke="#3a414a" stroke-width="5" fill="none"/><path d="M362.48-116.94h-4.96v-2.56h4.96z" stroke="#3a414a" stroke-width=".05" fill="#3a414a"/><path d="M360-46.06v2.56M600-117v70.5" stroke="#3a414a" stroke-width="5" fill="none"/><path d="M602.48-116.94h-4.96v-2.56h4.96z" stroke="#3a414a" stroke-width=".05" fill="#3a414a"/><path d="M600-46.56V-44" stroke="#3a414a" stroke-width="5" fill="none"/><defs><path fill="#3a414a" d="M182-182c0 78-84 86-111 141h115V0H12c-6-101 99-100 120-180 1-22-12-31-33-32-23 0-32 14-35 34l-49-3c5-45 32-70 84-70 51 0 83 22 83 69" id="aw"/><path fill="#3a414a" d="M101-251c68 0 84 54 84 127C185-50 166 4 99 4S15-52 14-124c-1-75 17-127 87-127zm-1 216c37-5 36-46 36-89s4-89-36-89c-39 0-36 45-36 89 0 43-3 85 36 89" id="ax"/><path fill="#3a414a" d="M23 0v-37h61v-169l-59 37v-38l62-41h46v211h57V0H23" id="ay"/><g id="a"><use transform="matrix(0.06790123456790122,0,0,0.06790123456790122,0,0)" xlink:href="#aw"/><use transform="matrix(0.06790123456790122,0,0,0.06790123456790122,13.580246913580243,0)" xlink:href="#ax"/><use transform="matrix(0.06790123456790122,0,0,0.06790123456790122,27.160493827160487,0)" xlink:href="#ay"/><use transform="matrix(0.06790123456790122,0,0,0.06790123456790122,40.74074074074073,0)" xlink:href="#ax"/></g><path fill="#3a414a" d="M24-248c120-7 223 5 221 122C244-46 201 0 124 0H24v-248zM76-40c74 7 117-18 117-86 0-67-45-88-117-82v168" id="az"/><path fill="#3a414a" d="M135-150c-39-12-60 13-60 57V0H25l-1-190h47c2 13-1 29 3 40 6-28 27-53 61-41v41" id="aA"/><path fill="#3a414a" d="M185-48c-13 30-37 53-82 52C43 2 14-33 14-96s30-98 90-98c62 0 83 45 84 108H66c0 31 8 55 39 56 18 0 30-7 34-22zm-45-69c5-46-57-63-70-21-2 6-4 13-4 21h74" id="aB"/><path fill="#3a414a" d="M231 0h-52l-39-155L100 0H48L-1-190h46L77-45c9-52 24-97 36-145h53l37 145 32-145h46" id="aC"/><g id="c"><use transform="matrix(0.06790123456790122,0,0,0.06790123456790122,0,0)" xlink:href="#az"/><use transform="matrix(0.06790123456790122,0,0,0.06790123456790122,17.586419753086414,0)" xlink:href="#aA"/><use transform="matrix(0.06790123456790122,0,0,0.06790123456790122,27.092592592592585,0)" xlink:href="#aB"/><use transform="matrix(0.06790123456790122,0,0,0.06790123456790122,40.67283950617283,0)" xlink:href="#aC"/></g><path fill="#3a414a" d="M195-6C206 82 75 100 31 46c-4-6-6-13-8-21l49-6c3 16 16 24 34 25 40 0 42-37 40-79-11 22-30 35-61 35-53 0-70-43-70-97 0-56 18-96 73-97 30 0 46 14 59 34l2-30h47zm-90-29c32 0 41-27 41-63 0-35-9-62-40-62-32 0-39 29-40 63 0 36 9 62 39 62" id="aD"/><path fill="#3a414a" d="M25-224v-37h50v37H25zM25 0v-190h50V0H25" id="aE"/><path fill="#3a414a" d="M128 0H69L1-190h53L99-40l48-150h52" id="aF"/><path fill="#3a414a" d="M137-138c1-29-70-34-71-4 15 46 118 7 119 86 1 83-164 76-172 9l43-7c4 19 20 25 44 25 33 8 57-30 24-41C81-84 22-81 20-136c-2-80 154-74 161-7" id="aG"/><g id="d"><use transform="matrix(0.06790123456790122,0,0,0.06790123456790122,0,0)" xlink:href="#aD"/><use transform="matrix(0.06790123456790122,0,0,0.06790123456790122,14.870370370370367,0)" xlink:href="#aE"/><use transform="matrix(0.06790123456790122,0,0,0.06790123456790122,21.660493827160487,0)" xlink:href="#aF"/><use transform="matrix(0.06790123456790122,0,0,0.06790123456790122,35.24074074074073,0)" xlink:href="#aB"/><use transform="matrix(0.06790123456790122,0,0,0.06790123456790122,48.82098765432097,0)" xlink:href="#aG"/></g><path fill="#3a414a" d="M85 4C-2 5 27-109 22-190h50c7 57-23 150 33 157 60-5 35-97 40-157h50l1 190h-47c-2-12 1-28-3-38-12 25-28 42-61 42" id="aH"/><g id="e"><use transform="matrix(0.06790123456790122,0,0,0.06790123456790122,0,0)" xlink:href="#aH"/><use transform="matrix(0.06790123456790122,0,0,0.06790123456790122,14.870370370370367,0)" xlink:href="#aG"/></g><path fill="#3a414a" d="M114-157C55-157 80-60 75 0H25v-261h50l-1 109c12-26 28-41 61-42 86-1 58 113 63 194h-50c-7-57 23-157-34-157" id="aI"/><g id="f"><use transform="matrix(0.06790123456790122,0,0,0.06790123456790122,0,0)" xlink:href="#aI"/><use transform="matrix(0.06790123456790122,0,0,0.06790123456790122,14.870370370370367,0)" xlink:href="#aE"/><use transform="matrix(0.06790123456790122,0,0,0.06790123456790122,21.660493827160487,0)" xlink:href="#aG"/></g><path fill="#3a414a" d="M135-194c87-1 58 113 63 194h-50c-7-57 23-157-34-157-59 0-34 97-39 157H25l-1-190h47c2 12-1 28 3 38 12-26 28-41 61-42" id="aJ"/><g id="g"><use transform="matrix(0.06790123456790122,0,0,0.06790123456790122,0,0)" xlink:href="#aF"/><use transform="matrix(0.06790123456790122,0,0,0.06790123456790122,13.580246913580243,0)" xlink:href="#aB"/><use transform="matrix(0.06790123456790122,0,0,0.06790123456790122,27.160493827160487,0)" xlink:href="#aJ"/><use transform="matrix(0.06790123456790122,0,0,0.06790123456790122,42.03086419753085,0)" xlink:href="#aJ"/></g><path fill="#3a414a" d="M88-194c31-1 46 15 58 34l-1-101h50l1 261h-48c-2-10 0-23-3-31C134-8 116 4 84 4 32 4 16-41 15-95c0-56 19-97 73-99zm17 164c33 0 40-30 41-66 1-37-9-64-41-64s-38 30-39 65c0 43 13 65 39 65" id="aK"/><path fill="#3a414a" d="M133-34C117-15 103 5 69 4 32 3 11-16 11-54c-1-60 55-63 116-61 1-26-3-47-28-47-18 1-26 9-28 27l-52-2c7-38 36-58 82-57s74 22 75 68l1 82c-1 14 12 18 25 15v27c-30 8-71 5-69-32zm-48 3c29 0 43-24 42-57-32 0-66-3-65 30 0 17 8 27 23 27" id="aL"/><path fill="#3a414a" d="M220-157c-53 9-28 100-34 157h-49v-107c1-27-5-49-29-50C55-147 81-57 75 0H25l-1-190h47c2 12-1 28 3 38 10-53 101-56 108 0 13-22 24-43 59-42 82 1 51 116 57 194h-49v-107c-1-25-5-48-29-50" id="aM"/><path fill="#3a414a" d="M24 0v-54h51V0H24" id="aN"/><g id="h"><use transform="matrix(0.06790123456790122,0,0,0.06790123456790122,0,0)" xlink:href="#aK"/><use transform="matrix(0.06790123456790122,0,0,0.06790123456790122,14.870370370370367,0)" xlink:href="#aE"/><use transform="matrix(0.06790123456790122,0,0,0.06790123456790122,21.660493827160487,0)" xlink:href="#aL"/><use transform="matrix(0.06790123456790122,0,0,0.06790123456790122,35.24074074074073,0)" xlink:href="#aD"/><use transform="matrix(0.06790123456790122,0,0,0.06790123456790122,50.1111111111111,0)" xlink:href="#aA"/><use transform="matrix(0.06790123456790122,0,0,0.06790123456790122,59.61728395061727,0)" xlink:href="#aL"/><use transform="matrix(0.06790123456790122,0,0,0.06790123456790122,73.19753086419752,0)" xlink:href="#aM"/><use transform="matrix(0.06790123456790122,0,0,0.06790123456790122,94.92592592592591,0)" xlink:href="#aN"/></g><path fill="#3a414a" d="M135-194c53 0 70 44 70 98 0 56-19 98-73 100-31 1-45-17-59-34 3 33 2 69 2 105H25l-1-265h48c2 10 0 23 3 31 11-24 29-35 60-35zM114-30c33 0 39-31 40-66 0-38-9-64-40-64-56 0-55 130 0 130" id="aO"/><g id="i"><use transform="matrix(0.06790123456790122,0,0,0.06790123456790122,0,0)" xlink:href="#az"/><use transform="matrix(0.06790123456790122,0,0,0.06790123456790122,17.586419753086414,0)" xlink:href="#aB"/><use transform="matrix(0.06790123456790122,0,0,0.06790123456790122,31.166666666666657,0)" xlink:href="#aB"/><use transform="matrix(0.06790123456790122,0,0,0.06790123456790122,44.7469135802469,0)" xlink:href="#aO"/></g><path fill="#3a414a" d="M25 0v-261h50V0H25" id="aP"/><g id="j"><use transform="matrix(0.06790123456790122,0,0,0.06790123456790122,0,0)" xlink:href="#aP"/><use transform="matrix(0.06790123456790122,0,0,0.06790123456790122,6.790123456790122,0)" xlink:href="#aB"/><use transform="matrix(0.06790123456790122,0,0,0.06790123456790122,20.370370370370367,0)" xlink:href="#aL"/><use transform="matrix(0.06790123456790122,0,0,0.06790123456790122,33.950617283950606,0)" xlink:href="#aA"/><use transform="matrix(0.06790123456790122,0,0,0.06790123456790122,43.45679012345678,0)" xlink:href="#aJ"/><use transform="matrix(0.06790123456790122,0,0,0.06790123456790122,58.327160493827144,0)" xlink:href="#aE"/><use transform="matrix(0.06790123456790122,0,0,0.06790123456790122,65.11728395061726,0)" xlink:href="#aJ"/><use transform="matrix(0.06790123456790122,0,0,0.06790123456790122,79.98765432098763,0)" xlink:href="#aD"/></g><g id="k"><use transform="matrix(0.06790123456790122,0,0,0.06790123456790122,0,0)" xlink:href="#aD"/><use transform="matrix(0.06790123456790122,0,0,0.06790123456790122,14.870370370370367,0)" xlink:href="#aL"/><use transform="matrix(0.06790123456790122,0,0,0.06790123456790122,28.45061728395061,0)" xlink:href="#aE"/><use transform="matrix(0.06790123456790122,0,0,0.06790123456790122,35.24074074074073,0)" xlink:href="#aJ"/><use transform="matrix(0.06790123456790122,0,0,0.06790123456790122,50.1111111111111,0)" xlink:href="#aG"/></g><path fill="#3a414a" d="M115-3C79 11 28 4 28-45v-112H4v-33h27l15-45h31v45h36v33H77v99c-1 23 16 31 38 25v30" id="aQ"/><path fill="#3a414a" d="M110-194c64 0 96 36 96 99 0 64-35 99-97 99-61 0-95-36-95-99 0-62 34-99 96-99zm-1 164c35 0 45-28 45-65 0-40-10-65-43-65-34 0-45 26-45 65 0 36 10 65 43 65" id="aR"/><g id="l"><use transform="matrix(0.06790123456790122,0,0,0.06790123456790122,0,0)" xlink:href="#aL"/><use transform="matrix(0.06790123456790122,0,0,0.06790123456790122,13.580246913580243,0)" xlink:href="#aQ"/><use transform="matrix(0.06790123456790122,0,0,0.06790123456790122,21.660493827160487,0)" xlink:href="#aQ"/><use transform="matrix(0.06790123456790122,0,0,0.06790123456790122,29.740740740740733,0)" xlink:href="#aB"/><use transform="matrix(0.06790123456790122,0,0,0.06790123456790122,43.32098765432097,0)" xlink:href="#aJ"/><use transform="matrix(0.06790123456790122,0,0,0.06790123456790122,58.19135802469134,0)" xlink:href="#aQ"/><use transform="matrix(0.06790123456790122,0,0,0.06790123456790122,66.27160493827158,0)" xlink:href="#aE"/><use transform="matrix(0.06790123456790122,0,0,0.06790123456790122,73.0617283950617,0)" xlink:href="#aR"/><use transform="matrix(0.06790123456790122,0,0,0.06790123456790122,87.93209876543207,0)" xlink:href="#aJ"/></g><g id="m"><use transform="matrix(0.06790123456790122,0,0,0.06790123456790122,0,0)" xlink:href="#aC"/><use transform="matrix(0.06790123456790122,0,0,0.06790123456790122,19.01234567901234,0)" xlink:href="#aE"/><use transform="matrix(0.06790123456790122,0,0,0.06790123456790122,25.80246913580246,0)" xlink:href="#aQ"/><use transform="matrix(0.06790123456790122,0,0,0.06790123456790122,33.88271604938271,0)" xlink:href="#aI"/></g><path fill="#3a414a" d="M175 0L67-191c6 58 2 128 3 191H24v-248h59L193-55c-6-58-2-129-3-193h46V0h-61" id="aS"/><g id="n"><use transform="matrix(0.06790123456790122,0,0,0.06790123456790122,0,0)" xlink:href="#aS"/><use transform="matrix(0.06790123456790122,0,0,0.06790123456790122,17.586419753086414,0)" xlink:href="#aS"/><use transform="matrix(0.06790123456790122,0,0,0.06790123456790122,35.17283950617283,0)" xlink:href="#aB"/><use transform="matrix(0.06790123456790122,0,0,0.06790123456790122,48.753086419753075,0)" xlink:href="#aQ"/></g><path fill="#3a414a" d="M135-194c52 0 70 43 70 98 0 56-19 99-73 100-30 1-46-15-58-35L72 0H24l1-261h50v104c11-23 29-37 60-37zM114-30c31 0 40-27 40-66 0-37-7-63-39-63s-41 28-41 65c0 36 8 64 40 64" id="aT"/><path fill="#3a414a" d="M147 0L96-86 75-71V0H25v-261h50v150l67-79h53l-66 74L201 0h-54" id="aU"/><g id="o"><use transform="matrix(0.06790123456790122,0,0,0.06790123456790122,0,0)" xlink:href="#aT"/><use transform="matrix(0.06790123456790122,0,0,0.06790123456790122,14.870370370370367,0)" xlink:href="#aA"/><use transform="matrix(0.06790123456790122,0,0,0.06790123456790122,24.376543209876537,0)" xlink:href="#aB"/><use transform="matrix(0.06790123456790122,0,0,0.06790123456790122,37.95679012345679,0)" xlink:href="#aL"/><use transform="matrix(0.06790123456790122,0,0,0.06790123456790122,51.537037037037024,0)" xlink:href="#aU"/><use transform="matrix(0.06790123456790122,0,0,0.06790123456790122,65.11728395061726,0)" xlink:href="#aQ"/><use transform="matrix(0.06790123456790122,0,0,0.06790123456790122,73.1975308641975,0)" xlink:href="#aI"/><use transform="matrix(0.06790123456790122,0,0,0.06790123456790122,88.06790123456787,0)" xlink:href="#aA"/><use transform="matrix(0.06790123456790122,0,0,0.06790123456790122,97.57407407407405,0)" xlink:href="#aR"/><use transform="matrix(0.06790123456790122,0,0,0.06790123456790122,112.44444444444441,0)" xlink:href="#aH"/><use transform="matrix(0.06790123456790122,0,0,0.06790123456790122,127.31481481481478,0)" xlink:href="#aD"/><use transform="matrix(0.06790123456790122,0,0,0.06790123456790122,142.18518518518516,0)" xlink:href="#aG"/></g><g id="p"><use transform="matrix(0.06790123456790122,0,0,0.06790123456790122,0,0)" xlink:href="#aL"/><use transform="matrix(0.06790123456790122,0,0,0.06790123456790122,13.580246913580243,0)" xlink:href="#aJ"/><use transform="matrix(0.06790123456790122,0,0,0.06790123456790122,28.45061728395061,0)" xlink:href="#aK"/></g><path fill="#3a414a" d="M190-63c-7 42-38 67-86 67-59 0-84-38-90-98-12-110 154-137 174-36l-49 2c-2-19-15-32-35-32-30 0-35 28-38 64-6 74 65 87 74 30" id="aV"/><g id="q"><use transform="matrix(0.06790123456790122,0,0,0.06790123456790122,0,0)" xlink:href="#aV"/><use transform="matrix(0.06790123456790122,0,0,0.06790123456790122,13.580246913580243,0)" xlink:href="#aR"/><use transform="matrix(0.06790123456790122,0,0,0.06790123456790122,28.45061728395061,0)" xlink:href="#aM"/><use transform="matrix(0.06790123456790122,0,0,0.06790123456790122,50.179012345679,0)" xlink:href="#aO"/><use transform="matrix(0.06790123456790122,0,0,0.06790123456790122,65.04938271604937,0)" xlink:href="#aH"/><use transform="matrix(0.06790123456790122,0,0,0.06790123456790122,79.91975308641973,0)" xlink:href="#aQ"/><use transform="matrix(0.06790123456790122,0,0,0.06790123456790122,87.99999999999997,0)" xlink:href="#aB"/><use transform="matrix(0.06790123456790122,0,0,0.06790123456790122,101.58024691358021,0)" xlink:href="#aA"/></g><g id="r"><use transform="matrix(0.06790123456790122,0,0,0.06790123456790122,0,0)" xlink:href="#aF"/><use transform="matrix(0.06790123456790122,0,0,0.06790123456790122,13.580246913580243,0)" xlink:href="#aE"/><use transform="matrix(0.06790123456790122,0,0,0.06790123456790122,20.370370370370367,0)" xlink:href="#aG"/><use transform="matrix(0.06790123456790122,0,0,0.06790123456790122,33.950617283950606,0)" xlink:href="#aE"/><use transform="matrix(0.06790123456790122,0,0,0.06790123456790122,40.74074074074072,0)" xlink:href="#aR"/><use transform="matrix(0.06790123456790122,0,0,0.06790123456790122,55.6111111111111,0)" xlink:href="#aJ"/><use transform="matrix(0.06790123456790122,0,0,0.06790123456790122,70.48148148148147,0)" xlink:href="#aN"/></g><path fill="#fc9432" d="M175 0L67-191c6 58 2 128 3 191H24v-248h59L193-55c-6-58-2-129-3-193h46V0h-61" id="aW"/><path fill="#fc9432" d="M185-48c-13 30-37 53-82 52C43 2 14-33 14-96s30-98 90-98c62 0 83 45 84 108H66c0 31 8 55 39 56 18 0 30-7 34-22zm-45-69c5-46-57-63-70-21-2 6-4 13-4 21h74" id="aX"/><path fill="#fc9432" d="M115-3C79 11 28 4 28-45v-112H4v-33h27l15-45h31v45h36v33H77v99c-1 23 16 31 38 25v30" id="aY"/><path fill="#fc9432" d="M137-138c1-29-70-34-71-4 15 46 118 7 119 86 1 83-164 76-172 9l43-7c4 19 20 25 44 25 33 8 57-30 24-41C81-84 22-81 20-136c-2-80 154-74 161-7" id="aZ"/><path fill="#fc9432" d="M76-54c-1 42 2 86-19 110H24C36 42 46 24 48 0H25v-54h51" id="ba"/><g id="t"><use transform="matrix(0.06790123456790122,0,0,0.06790123456790122,0,0)" xlink:href="#aW"/><use transform="matrix(0.06790123456790122,0,0,0.06790123456790122,17.586419753086414,0)" xlink:href="#aW"/><use transform="matrix(0.06790123456790122,0,0,0.06790123456790122,35.17283950617283,0)" xlink:href="#aX"/><use transform="matrix(0.06790123456790122,0,0,0.06790123456790122,48.753086419753075,0)" xlink:href="#aY"/><use transform="matrix(0.06790123456790122,0,0,0.06790123456790122,56.83333333333332,0)" xlink:href="#aZ"/><use transform="matrix(0.06790123456790122,0,0,0.06790123456790122,70.41358024691357,0)" xlink:href="#ba"/></g><path fill="#fc9432" d="M24-248c93 1 206-16 204 79-1 75-69 88-152 82V0H24v-248zm52 121c47 0 100 7 100-41 0-47-54-39-100-39v80" id="bb"/><path fill="#fc9432" d="M123 10C108 53 80 86 19 72V37c35 8 53-11 59-39L3-190h52l48 148c12-52 28-100 44-148h51" id="bc"/><path fill="#fc9432" d="M114-157C55-157 80-60 75 0H25v-261h50l-1 109c12-26 28-41 61-42 86-1 58 113 63 194h-50c-7-57 23-157-34-157" id="bd"/><path fill="#fc9432" d="M110-194c64 0 96 36 96 99 0 64-35 99-97 99-61 0-95-36-95-99 0-62 34-99 96-99zm-1 164c35 0 45-28 45-65 0-40-10-65-43-65-34 0-45 26-45 65 0 36 10 65 43 65" id="be"/><path fill="#fc9432" d="M135-194c87-1 58 113 63 194h-50c-7-57 23-157-34-157-59 0-34 97-39 157H25l-1-190h47c2 12-1 28 3 38 12-26 28-41 61-42" id="bf"/><g id="u"><use transform="matrix(0.06790123456790122,0,0,0.06790123456790122,0,0)" xlink:href="#bb"/><use transform="matrix(0.06790123456790122,0,0,0.06790123456790122,16.29629629629629,0)" xlink:href="#bc"/><use transform="matrix(0.06790123456790122,0,0,0.06790123456790122,29.876543209876534,0)" xlink:href="#aY"/><use transform="matrix(0.06790123456790122,0,0,0.06790123456790122,37.95679012345678,0)" xlink:href="#bd"/><use transform="matrix(0.06790123456790122,0,0,0.06790123456790122,52.827160493827144,0)" xlink:href="#be"/><use transform="matrix(0.06790123456790122,0,0,0.06790123456790122,67.69753086419752,0)" xlink:href="#bf"/><use transform="matrix(0.06790123456790122,0,0,0.06790123456790122,82.56790123456788,0)" xlink:href="#ba"/></g><path fill="#fc9432" d="M136-208V0H84v-208H4v-40h212v40h-80" id="bg"/><path fill="#fc9432" d="M135-150c-39-12-60 13-60 57V0H25l-1-190h47c2 13-1 29 3 40 6-28 27-53 61-41v41" id="bh"/><path fill="#fc9432" d="M76-208v77h127v40H76V0H24v-248h183v40H76" id="bi"/><path fill="#fc9432" d="M25 0v-261h50V0H25" id="bj"/><path fill="#fc9432" d="M231 0h-52l-39-155L100 0H48L-1-190h46L77-45c9-52 24-97 36-145h53l37 145 32-145h46" id="bk"/><g id="v"><use transform="matrix(0.06790123456790122,0,0,0.06790123456790122,0,0)" xlink:href="#bg"/><use transform="matrix(0.06790123456790122,0,0,0.06790123456790122,13.037037037037035,0)" xlink:href="#aX"/><use transform="matrix(0.06790123456790122,0,0,0.06790123456790122,26.617283950617278,0)" xlink:href="#bf"/><use transform="matrix(0.06790123456790122,0,0,0.06790123456790122,41.487654320987644,0)" xlink:href="#aZ"/><use transform="matrix(0.06790123456790122,0,0,0.06790123456790122,55.067901234567884,0)" xlink:href="#be"/><use transform="matrix(0.06790123456790122,0,0,0.06790123456790122,69.93827160493825,0)" xlink:href="#bh"/><use transform="matrix(0.06790123456790122,0,0,0.06790123456790122,79.44444444444443,0)" xlink:href="#bi"/><use transform="matrix(0.06790123456790122,0,0,0.06790123456790122,94.3148148148148,0)" xlink:href="#bj"/><use transform="matrix(0.06790123456790122,0,0,0.06790123456790122,101.10493827160492,0)" xlink:href="#be"/><use transform="matrix(0.06790123456790122,0,0,0.06790123456790122,115.97530864197529,0)" xlink:href="#bk"/></g><path fill="#3a414a" d="M128-127c34 4 56 21 59 58 7 91-148 94-172 28-4-9-6-17-7-26l51-5c1 24 16 35 40 36 23 0 39-12 38-36-1-31-31-36-65-34v-40c32 2 59-3 59-33 0-20-13-33-34-33s-33 13-35 32l-50-3c6-44 37-68 86-68 50 0 83 20 83 66 0 35-22 52-53 58" id="bl"/><g id="w"><use transform="matrix(0.06790123456790122,0,0,0.06790123456790122,0,0)" xlink:href="#aw"/><use transform="matrix(0.06790123456790122,0,0,0.06790123456790122,13.580246913580243,0)" xlink:href="#ax"/><use transform="matrix(0.06790123456790122,0,0,0.06790123456790122,27.160493827160487,0)" xlink:href="#ay"/><use transform="matrix(0.06790123456790122,0,0,0.06790123456790122,40.74074074074073,0)" xlink:href="#bl"/></g><path fill="#3a414a" d="M199 0l-22-63H83L61 0H9l90-248h61L250 0h-51zm-33-102l-36-108c-10 38-24 72-36 108h72" id="bm"/><path fill="#3a414a" d="M123 10C108 53 80 86 19 72V37c35 8 53-11 59-39L3-190h52l48 148c12-52 28-100 44-148h51" id="bn"/><path fill="#3a414a" d="M12 0v-35l95-120H19v-35h142v35L67-36h103V0H12" id="bo"/><g id="x"><use transform="matrix(0.06790123456790122,0,0,0.06790123456790122,0,0)" xlink:href="#bm"/><use transform="matrix(0.06790123456790122,0,0,0.06790123456790122,17.586419753086414,0)" xlink:href="#aJ"/><use transform="matrix(0.06790123456790122,0,0,0.06790123456790122,32.456790123456784,0)" xlink:href="#aL"/><use transform="matrix(0.06790123456790122,0,0,0.06790123456790122,46.037037037037024,0)" xlink:href="#aP"/><use transform="matrix(0.06790123456790122,0,0,0.06790123456790122,52.827160493827144,0)" xlink:href="#bn"/><use transform="matrix(0.06790123456790122,0,0,0.06790123456790122,66.40740740740739,0)" xlink:href="#bo"/><use transform="matrix(0.06790123456790122,0,0,0.06790123456790122,78.6296296296296,0)" xlink:href="#aE"/><use transform="matrix(0.06790123456790122,0,0,0.06790123456790122,85.41975308641973,0)" xlink:href="#aJ"/><use transform="matrix(0.06790123456790122,0,0,0.06790123456790122,100.2901234567901,0)" xlink:href="#aD"/></g><g id="y"><use transform="matrix(0.06790123456790122,0,0,0.06790123456790122,0,0)" xlink:href="#aQ"/><use transform="matrix(0.06790123456790122,0,0,0.06790123456790122,8.080246913580245,0)" xlink:href="#aI"/><use transform="matrix(0.06790123456790122,0,0,0.06790123456790122,22.950617283950614,0)" xlink:href="#aB"/></g><g id="z"><use transform="matrix(0.06790123456790122,0,0,0.06790123456790122,0,0)" xlink:href="#bm"/><use transform="matrix(0.06790123456790122,0,0,0.06790123456790122,17.586419753086414,0)" xlink:href="#aJ"/><use transform="matrix(0.06790123456790122,0,0,0.06790123456790122,32.456790123456784,0)" xlink:href="#aL"/><use transform="matrix(0.06790123456790122,0,0,0.06790123456790122,46.037037037037024,0)" xlink:href="#aP"/><use transform="matrix(0.06790123456790122,0,0,0.06790123456790122,52.827160493827144,0)" xlink:href="#bn"/><use transform="matrix(0.06790123456790122,0,0,0.06790123456790122,66.40740740740739,0)" xlink:href="#bo"/><use transform="matrix(0.06790123456790122,0,0,0.06790123456790122,78.6296296296296,0)" xlink:href="#aB"/><use transform="matrix(0.06790123456790122,0,0,0.06790123456790122,92.20987654320983,0)" xlink:href="#aA"/><use transform="matrix(0.06790123456790122,0,0,0.06790123456790122,101.71604938271602,0)" xlink:href="#aG"/></g><path fill="#3a414a" d="M139-81c0-46-55-55-73-27H18l9-140h149v37H72l-4 63c44-38 133-4 122 66C201 21 21 35 11-62l49-4c5 18 15 30 39 30 26 0 40-18 40-45" id="bp"/><g id="A"><use transform="matrix(0.06790123456790122,0,0,0.06790123456790122,0,0)" xlink:href="#aw"/><use transform="matrix(0.06790123456790122,0,0,0.06790123456790122,13.580246913580243,0)" xlink:href="#ax"/><use transform="matrix(0.06790123456790122,0,0,0.06790123456790122,27.160493827160487,0)" xlink:href="#ay"/><use transform="matrix(0.06790123456790122,0,0,0.06790123456790122,40.74074074074073,0)" xlink:href="#bp"/></g><path fill="#3a414a" d="M182-130c37 4 62 22 62 59C244 23 116-4 24 0v-248c84 5 203-23 205 63 0 31-19 50-47 55zM76-148c40-3 101 13 101-30 0-44-60-28-101-31v61zm0 110c48-3 116 14 116-37 0-48-69-32-116-35v72" id="bq"/><g id="B"><use transform="matrix(0.06790123456790122,0,0,0.06790123456790122,0,0)" xlink:href="#bq"/><use transform="matrix(0.06790123456790122,0,0,0.06790123456790122,17.586419753086414,0)" xlink:href="#aE"/><use transform="matrix(0.06790123456790122,0,0,0.06790123456790122,24.376543209876537,0)" xlink:href="#aD"/></g><g id="C"><use transform="matrix(0.06790123456790122,0,0,0.06790123456790122,0,0)" xlink:href="#aK"/><use transform="matrix(0.06790123456790122,0,0,0.06790123456790122,14.870370370370367,0)" xlink:href="#aL"/><use transform="matrix(0.06790123456790122,0,0,0.06790123456790122,28.45061728395061,0)" xlink:href="#aQ"/><use transform="matrix(0.06790123456790122,0,0,0.06790123456790122,36.53086419753085,0)" xlink:href="#aL"/></g><g id="D"><use transform="matrix(0.06790123456790122,0,0,0.06790123456790122,0,0)" xlink:href="#aQ"/><use transform="matrix(0.06790123456790122,0,0,0.06790123456790122,8.080246913580245,0)" xlink:href="#aB"/><use transform="matrix(0.06790123456790122,0,0,0.06790123456790122,21.660493827160487,0)" xlink:href="#aV"/><use transform="matrix(0.06790123456790122,0,0,0.06790123456790122,35.24074074074073,0)" xlink:href="#aI"/><use transform="matrix(0.06790123456790122,0,0,0.06790123456790122,50.1111111111111,0)" xlink:href="#aJ"/><use transform="matrix(0.06790123456790122,0,0,0.06790123456790122,64.98148148148147,0)" xlink:href="#aR"/><use transform="matrix(0.06790123456790122,0,0,0.06790123456790122,79.85185185185183,0)" xlink:href="#aP"/><use transform="matrix(0.06790123456790122,0,0,0.06790123456790122,86.64197530864195,0)" xlink:href="#aR"/><use transform="matrix(0.06790123456790122,0,0,0.06790123456790122,101.51234567901234,0)" xlink:href="#aD"/><use transform="matrix(0.06790123456790122,0,0,0.06790123456790122,116.38271604938271,0)" xlink:href="#aE"/><use transform="matrix(0.06790123456790122,0,0,0.06790123456790122,123.17283950617282,0)" xlink:href="#aB"/><use transform="matrix(0.06790123456790122,0,0,0.06790123456790122,136.75308641975306,0)" xlink:href="#aG"/></g><g id="E"><use transform="matrix(0.06790123456790122,0,0,0.06790123456790122,0,0)" xlink:href="#aL"/><use transform="matrix(0.06790123456790122,0,0,0.06790123456790122,13.580246913580243,0)" xlink:href="#aA"/><use transform="matrix(0.06790123456790122,0,0,0.06790123456790122,23.086419753086414,0)" xlink:href="#aB"/></g><g id="F"><use transform="matrix(0.06790123456790122,0,0,0.06790123456790122,0,0)" xlink:href="#aM"/><use transform="matrix(0.06790123456790122,0,0,0.06790123456790122,21.72839506172839,0)" xlink:href="#aL"/><use transform="matrix(0.06790123456790122,0,0,0.06790123456790122,35.30864197530863,0)" xlink:href="#aE"/><use transform="matrix(0.06790123456790122,0,0,0.06790123456790122,42.09876543209875,0)" xlink:href="#aJ"/><use transform="matrix(0.06790123456790122,0,0,0.06790123456790122,56.96913580246912,0)" xlink:href="#aG"/><use transform="matrix(0.06790123456790122,0,0,0.06790123456790122,70.54938271604937,0)" xlink:href="#aQ"/><use transform="matrix(0.06790123456790122,0,0,0.06790123456790122,78.6296296296296,0)" xlink:href="#aA"/><use transform="matrix(0.06790123456790122,0,0,0.06790123456790122,88.13580246913577,0)" xlink:href="#aB"/><use transform="matrix(0.06790123456790122,0,0,0.06790123456790122,101.71604938271601,0)" xlink:href="#aL"/><use transform="matrix(0.06790123456790122,0,0,0.06790123456790122,115.29629629629625,0)" xlink:href="#aM"/></g><path fill="#3a414a" d="M52 0c1-96 47-148 87-207H15v-41h169v40c-36 62-79 113-81 208H52" id="br"/><g id="G"><use transform="matrix(0.06790123456790122,0,0,0.06790123456790122,0,0)" xlink:href="#aw"/><use transform="matrix(0.06790123456790122,0,0,0.06790123456790122,13.580246913580243,0)" xlink:href="#ax"/><use transform="matrix(0.06790123456790122,0,0,0.06790123456790122,27.160493827160487,0)" xlink:href="#ay"/><use transform="matrix(0.06790123456790122,0,0,0.06790123456790122,40.74074074074073,0)" xlink:href="#br"/></g><path fill="#3a414a" d="M136-208V0H84v-208H4v-40h212v40h-80" id="bs"/><g id="H"><use transform="matrix(0.06790123456790122,0,0,0.06790123456790122,0,0)" xlink:href="#bs"/><use transform="matrix(0.06790123456790122,0,0,0.06790123456790122,14.870370370370367,0)" xlink:href="#aI"/><use transform="matrix(0.06790123456790122,0,0,0.06790123456790122,29.740740740740733,0)" xlink:href="#aB"/></g><path fill="#3a414a" d="M121-226c-27-7-43 5-38 36h38v33H83V0H34v-157H6v-33h28c-9-59 32-81 87-68v32" id="bt"/><g id="I"><use transform="matrix(0.06790123456790122,0,0,0.06790123456790122,0,0)" xlink:href="#bs"/><use transform="matrix(0.06790123456790122,0,0,0.06790123456790122,13.512345679012341,0)" xlink:href="#aA"/><use transform="matrix(0.06790123456790122,0,0,0.06790123456790122,23.018518518518512,0)" xlink:href="#aL"/><use transform="matrix(0.06790123456790122,0,0,0.06790123456790122,36.59876543209876,0)" xlink:href="#aJ"/><use transform="matrix(0.06790123456790122,0,0,0.06790123456790122,51.469135802469125,0)" xlink:href="#aG"/><use transform="matrix(0.06790123456790122,0,0,0.06790123456790122,65.04938271604937,0)" xlink:href="#bt"/><use transform="matrix(0.06790123456790122,0,0,0.06790123456790122,73.1296296296296,0)" xlink:href="#aR"/><use transform="matrix(0.06790123456790122,0,0,0.06790123456790122,87.99999999999997,0)" xlink:href="#aA"/><use transform="matrix(0.06790123456790122,0,0,0.06790123456790122,97.50617283950615,0)" xlink:href="#aM"/><use transform="matrix(0.06790123456790122,0,0,0.06790123456790122,119.23456790123454,0)" xlink:href="#aB"/><use transform="matrix(0.06790123456790122,0,0,0.06790123456790122,132.81481481481478,0)" xlink:href="#aA"/></g><g id="J"><use transform="matrix(0.06790123456790122,0,0,0.06790123456790122,0,0)" xlink:href="#bm"/><use transform="matrix(0.06790123456790122,0,0,0.06790123456790122,17.586419753086414,0)" xlink:href="#aA"/><use transform="matrix(0.06790123456790122,0,0,0.06790123456790122,27.092592592592585,0)" xlink:href="#aV"/><use transform="matrix(0.06790123456790122,0,0,0.06790123456790122,40.67283950617283,0)" xlink:href="#aI"/><use transform="matrix(0.06790123456790122,0,0,0.06790123456790122,55.543209876543195,0)" xlink:href="#aE"/><use transform="matrix(0.06790123456790122,0,0,0.06790123456790122,62.333333333333314,0)" xlink:href="#aQ"/><use transform="matrix(0.06790123456790122,0,0,0.06790123456790122,70.41358024691354,0)" xlink:href="#aB"/><use transform="matrix(0.06790123456790122,0,0,0.06790123456790122,83.9938271604938,0)" xlink:href="#aV"/><use transform="matrix(0.06790123456790122,0,0,0.06790123456790122,97.57407407407403,0)" xlink:href="#aQ"/><use transform="matrix(0.06790123456790122,0,0,0.06790123456790122,105.65432098765427,0)" xlink:href="#aH"/><use transform="matrix(0.06790123456790122,0,0,0.06790123456790122,120.52469135802464,0)" xlink:href="#aA"/><use transform="matrix(0.06790123456790122,0,0,0.06790123456790122,130.0308641975308,0)" xlink:href="#aB"/></g><g id="K"><use transform="matrix(0.06790123456790122,0,0,0.06790123456790122,0,0)" xlink:href="#aE"/><use transform="matrix(0.06790123456790122,0,0,0.06790123456790122,6.790123456790122,0)" xlink:href="#aG"/></g><g id="L"><use transform="matrix(0.06790123456790122,0,0,0.06790123456790122,0,0)" xlink:href="#aE"/><use transform="matrix(0.06790123456790122,0,0,0.06790123456790122,6.790123456790122,0)" xlink:href="#aJ"/><use transform="matrix(0.06790123456790122,0,0,0.06790123456790122,21.660493827160487,0)" xlink:href="#aQ"/><use transform="matrix(0.06790123456790122,0,0,0.06790123456790122,29.740740740740733,0)" xlink:href="#aA"/><use transform="matrix(0.06790123456790122,0,0,0.06790123456790122,39.246913580246904,0)" xlink:href="#aR"/><use transform="matrix(0.06790123456790122,0,0,0.06790123456790122,54.11728395061727,0)" xlink:href="#aK"/><use transform="matrix(0.06790123456790122,0,0,0.06790123456790122,68.98765432098764,0)" xlink:href="#aH"/><use transform="matrix(0.06790123456790122,0,0,0.06790123456790122,83.85802469135803,0)" xlink:href="#aV"/><use transform="matrix(0.06790123456790122,0,0,0.06790123456790122,97.43827160493825,0)" xlink:href="#aB"/><use transform="matrix(0.06790123456790122,0,0,0.06790123456790122,111.01851851851849,0)" xlink:href="#aK"/></g><g id="M"><use transform="matrix(0.06790123456790122,0,0,0.06790123456790122,0,0)" xlink:href="#aw"/><use transform="matrix(0.06790123456790122,0,0,0.06790123456790122,13.580246913580243,0)" xlink:href="#ax"/><use transform="matrix(0.06790123456790122,0,0,0.06790123456790122,27.160493827160487,0)" xlink:href="#ay"/><use transform="matrix(0.06790123456790122,0,0,0.06790123456790122,40.74074074074073,0)" xlink:href="#aw"/></g><g id="N"><use transform="matrix(0.06790123456790122,0,0,0.06790123456790122,0,0)" xlink:href="#aK"/><use transform="matrix(0.06790123456790122,0,0,0.06790123456790122,14.870370370370367,0)" xlink:href="#aE"/><use transform="matrix(0.06790123456790122,0,0,0.06790123456790122,21.660493827160487,0)" xlink:href="#aL"/><use transform="matrix(0.06790123456790122,0,0,0.06790123456790122,35.24074074074073,0)" xlink:href="#aD"/><use transform="matrix(0.06790123456790122,0,0,0.06790123456790122,50.1111111111111,0)" xlink:href="#aA"/><use transform="matrix(0.06790123456790122,0,0,0.06790123456790122,59.61728395061727,0)" xlink:href="#aL"/><use transform="matrix(0.06790123456790122,0,0,0.06790123456790122,73.19753086419752,0)" xlink:href="#aM"/></g><g id="O"><use transform="matrix(0.06790123456790122,0,0,0.06790123456790122,0,0)" xlink:href="#aw"/><use transform="matrix(0.06790123456790122,0,0,0.06790123456790122,13.580246913580243,0)" xlink:href="#ax"/><use transform="matrix(0.06790123456790122,0,0,0.06790123456790122,27.160493827160487,0)" xlink:href="#ay"/><use transform="matrix(0.06790123456790122,0,0,0.06790123456790122,39.38271604938271,0)" xlink:href="#ay"/></g><g id="P"><use transform="matrix(0.06790123456790122,0,0,0.06790123456790122,0,0)" xlink:href="#bm"/><use transform="matrix(0.06790123456790122,0,0,0.06790123456790122,17.586419753086414,0)" xlink:href="#aO"/><use transform="matrix(0.06790123456790122,0,0,0.06790123456790122,32.456790123456784,0)" xlink:href="#aL"/><use transform="matrix(0.06790123456790122,0,0,0.06790123456790122,46.037037037037024,0)" xlink:href="#aV"/><use transform="matrix(0.06790123456790122,0,0,0.06790123456790122,59.617283950617264,0)" xlink:href="#aI"/><use transform="matrix(0.06790123456790122,0,0,0.06790123456790122,74.48765432098763,0)" xlink:href="#aB"/></g><path fill="#3a414a" d="M169-182c-1-43-94-46-97-3 18 66 151 10 154 114 3 95-165 93-204 36-6-8-10-19-12-30l50-8c3 46 112 56 116 5-17-69-150-10-154-114-4-87 153-88 188-35 5 8 8 18 10 28" id="bu"/><g id="Q"><use transform="matrix(0.06790123456790122,0,0,0.06790123456790122,0,0)" xlink:href="#bu"/><use transform="matrix(0.06790123456790122,0,0,0.06790123456790122,16.29629629629629,0)" xlink:href="#aO"/><use transform="matrix(0.06790123456790122,0,0,0.06790123456790122,31.166666666666657,0)" xlink:href="#aL"/><use transform="matrix(0.06790123456790122,0,0,0.06790123456790122,44.7469135802469,0)" xlink:href="#aA"/><use transform="matrix(0.06790123456790122,0,0,0.06790123456790122,54.25308641975307,0)" xlink:href="#aU"/></g><g id="R"><use transform="matrix(0.06790123456790122,0,0,0.06790123456790122,0,0)" xlink:href="#aB"/><use transform="matrix(0.06790123456790122,0,0,0.06790123456790122,13.580246913580243,0)" xlink:href="#aM"/><use transform="matrix(0.06790123456790122,0,0,0.06790123456790122,35.30864197530863,0)" xlink:href="#aB"/><use transform="matrix(0.06790123456790122,0,0,0.06790123456790122,48.88888888888887,0)" xlink:href="#aA"/><use transform="matrix(0.06790123456790122,0,0,0.06790123456790122,58.39506172839504,0)" xlink:href="#aD"/><use transform="matrix(0.06790123456790122,0,0,0.06790123456790122,73.26543209876542,0)" xlink:href="#aB"/><use transform="matrix(0.06790123456790122,0,0,0.06790123456790122,86.84567901234566,0)" xlink:href="#aG"/><use transform="matrix(0.06790123456790122,0,0,0.06790123456790122,100.4259259259259,0)" xlink:href="#aN"/></g><path fill="#3a414a" d="M186 0v-106H76V0H24v-248h52v99h110v-99h50V0h-50" id="bv"/><g id="S"><use transform="matrix(0.06790123456790122,0,0,0.06790123456790122,0,0)" xlink:href="#bv"/><use transform="matrix(0.06790123456790122,0,0,0.06790123456790122,17.586419753086414,0)" xlink:href="#aR"/><use transform="matrix(0.06790123456790122,0,0,0.06790123456790122,32.456790123456784,0)" xlink:href="#aQ"/></g><path fill="#3a414a" d="M35-132v-50h50v50H35zM35 0v-49h50V0H35" id="bw"/><g id="T"><use transform="matrix(0.06790123456790122,0,0,0.06790123456790122,0,0)" xlink:href="#aG"/><use transform="matrix(0.06790123456790122,0,0,0.06790123456790122,13.580246913580243,0)" xlink:href="#aU"/><use transform="matrix(0.06790123456790122,0,0,0.06790123456790122,27.160493827160487,0)" xlink:href="#aE"/><use transform="matrix(0.06790123456790122,0,0,0.06790123456790122,33.950617283950606,0)" xlink:href="#aP"/><use transform="matrix(0.06790123456790122,0,0,0.06790123456790122,40.74074074074072,0)" xlink:href="#aP"/><use transform="matrix(0.06790123456790122,0,0,0.06790123456790122,47.530864197530846,0)" xlink:href="#aG"/><use transform="matrix(0.06790123456790122,0,0,0.06790123456790122,61.111111111111086,0)" xlink:href="#bw"/></g><path fill="#3a414a" d="M165-50V0h-47v-50H5v-38l105-160h55v161h33v37h-33zm-47-37l2-116L46-87h72" id="bx"/><g id="U"><use transform="matrix(0.06790123456790122,0,0,0.06790123456790122,0,0)" xlink:href="#aw"/><use transform="matrix(0.06790123456790122,0,0,0.06790123456790122,13.580246913580243,0)" xlink:href="#ax"/><use transform="matrix(0.06790123456790122,0,0,0.06790123456790122,27.160493827160487,0)" xlink:href="#ay"/><use transform="matrix(0.06790123456790122,0,0,0.06790123456790122,40.74074074074073,0)" xlink:href="#bx"/></g><path fill="#3a414a" d="M115-159c48 0 72 30 72 78 0 54-30 85-83 85-64 0-91-50-91-122 0-98 58-163 141-120 15 8 21 24 27 44l-47 6c-5-31-48-31-61-4-7 14-11 33-11 60 9-17 28-27 53-27zM102-35c24 0 36-20 36-45s-11-43-37-43c-23 0-36 14-36 38 0 27 11 50 37 50" id="by"/><g id="V"><use transform="matrix(0.06790123456790122,0,0,0.06790123456790122,0,0)" xlink:href="#aw"/><use transform="matrix(0.06790123456790122,0,0,0.06790123456790122,13.580246913580243,0)" xlink:href="#ax"/><use transform="matrix(0.06790123456790122,0,0,0.06790123456790122,27.160493827160487,0)" xlink:href="#ay"/><use transform="matrix(0.06790123456790122,0,0,0.06790123456790122,40.74074074074073,0)" xlink:href="#by"/></g><path fill="#3a414a" d="M138-131c27 9 52 24 51 61 0 53-36 74-89 74S11-19 11-69c0-35 22-54 51-61-78-25-46-121 38-121 51 0 83 19 83 66 0 30-18 49-45 54zm-38-16c24 0 32-13 32-36 1-23-11-34-32-34-22 0-33 12-32 34 0 22 9 36 32 36zm1 116c27 0 37-17 37-43 0-25-13-39-39-39-24 0-37 15-37 40 0 27 11 42 39 42" id="bz"/><g id="W"><use transform="matrix(0.06790123456790122,0,0,0.06790123456790122,0,0)" xlink:href="#aw"/><use transform="matrix(0.06790123456790122,0,0,0.06790123456790122,13.580246913580243,0)" xlink:href="#ax"/><use transform="matrix(0.06790123456790122,0,0,0.06790123456790122,27.160493827160487,0)" xlink:href="#ay"/><use transform="matrix(0.06790123456790122,0,0,0.06790123456790122,40.74074074074073,0)" xlink:href="#bz"/></g><g id="X"><use transform="matrix(0.06790123456790122,0,0,0.06790123456790122,0,0)" xlink:href="#aw"/><use transform="matrix(0.06790123456790122,0,0,0.06790123456790122,13.580246913580243,0)" xlink:href="#ax"/><use transform="matrix(0.06790123456790122,0,0,0.06790123456790122,27.160493827160487,0)" xlink:href="#aw"/><use transform="matrix(0.06790123456790122,0,0,0.06790123456790122,40.74074074074073,0)" xlink:href="#ax"/></g><g id="Y"><use transform="matrix(0.06790123456790122,0,0,0.06790123456790122,0,0)" xlink:href="#aw"/><use transform="matrix(0.06790123456790122,0,0,0.06790123456790122,13.580246913580243,0)" xlink:href="#ax"/><use transform="matrix(0.06790123456790122,0,0,0.06790123456790122,27.160493827160487,0)" xlink:href="#aw"/><use transform="matrix(0.06790123456790122,0,0,0.06790123456790122,40.74074074074073,0)" xlink:href="#aw"/></g><g id="Z"><use transform="matrix(0.06790123456790122,0,0,0.06790123456790122,0,0)" xlink:href="#aw"/><use transform="matrix(0.06790123456790122,0,0,0.06790123456790122,13.580246913580243,0)" xlink:href="#ax"/><use transform="matrix(0.06790123456790122,0,0,0.06790123456790122,27.160493827160487,0)" xlink:href="#aw"/><use transform="matrix(0.06790123456790122,0,0,0.06790123456790122,40.74074074074073,0)" xlink:href="#bx"/></g><path fill="#3a414a" d="M99-251c69 0 84 53 88 123 5 99-61 162-144 118-15-8-21-25-26-45l46-6c4 31 50 33 63 7 7-15 12-36 12-60-9 18-29 28-54 28-48 0-72-32-72-82 0-55 31-83 87-83zm-1 128c24 0 37-16 37-39 0-27-10-51-37-51-25 0-35 19-35 45 0 25 10 45 35 45" id="bA"/><g id="aa"><use transform="matrix(0.06790123456790122,0,0,0.06790123456790122,0,0)" xlink:href="#aw"/><use transform="matrix(0.06790123456790122,0,0,0.06790123456790122,13.580246913580243,0)" xlink:href="#ax"/><use transform="matrix(0.06790123456790122,0,0,0.06790123456790122,27.160493827160487,0)" xlink:href="#ay"/><use transform="matrix(0.06790123456790122,0,0,0.06790123456790122,40.74074074074073,0)" xlink:href="#bA"/></g><g id="ab"><use transform="matrix(0.06790123456790122,0,0,0.06790123456790122,0,0)" xlink:href="#aw"/><use transform="matrix(0.06790123456790122,0,0,0.06790123456790122,13.580246913580243,0)" xlink:href="#ax"/><use transform="matrix(0.06790123456790122,0,0,0.06790123456790122,27.160493827160487,0)" xlink:href="#aw"/><use transform="matrix(0.06790123456790122,0,0,0.06790123456790122,40.74074074074073,0)" xlink:href="#ay"/></g><g id="ac"><use transform="matrix(0.06790123456790122,0,0,0.06790123456790122,0,0)" xlink:href="#aw"/><use transform="matrix(0.06790123456790122,0,0,0.06790123456790122,13.580246913580243,0)" xlink:href="#ax"/><use transform="matrix(0.06790123456790122,0,0,0.06790123456790122,27.160493827160487,0)" xlink:href="#aw"/><use transform="matrix(0.06790123456790122,0,0,0.06790123456790122,40.74074074074073,0)" xlink:href="#bl"/></g><g id="ad"><use transform="matrix(0.06790123456790122,0,0,0.06790123456790122,0,0)" xlink:href="#aw"/><use transform="matrix(0.06790123456790122,0,0,0.06790123456790122,13.580246913580243,0)" xlink:href="#ax"/><use transform="matrix(0.06790123456790122,0,0,0.06790123456790122,27.160493827160487,0)" xlink:href="#ax"/><use transform="matrix(0.06790123456790122,0,0,0.06790123456790122,40.74074074074073,0)" xlink:href="#bA"/></g><g id="ae"><use transform="matrix(0.06790123456790122,0,0,0.06790123456790122,0,0)" xlink:href="#bv"/><use transform="matrix(0.06790123456790122,0,0,0.06790123456790122,17.586419753086414,0)" xlink:href="#aL"/><use transform="matrix(0.06790123456790122,0,0,0.06790123456790122,31.166666666666657,0)" xlink:href="#aK"/><use transform="matrix(0.06790123456790122,0,0,0.06790123456790122,46.037037037037024,0)" xlink:href="#aR"/><use transform="matrix(0.06790123456790122,0,0,0.06790123456790122,60.90740740740739,0)" xlink:href="#aR"/><use transform="matrix(0.06790123456790122,0,0,0.06790123456790122,75.77777777777776,0)" xlink:href="#aO"/></g><g id="af"><use transform="matrix(0.06790123456790122,0,0,0.06790123456790122,0,0)" xlink:href="#aD"/><use transform="matrix(0.06790123456790122,0,0,0.06790123456790122,14.870370370370367,0)" xlink:href="#aB"/><use transform="matrix(0.06790123456790122,0,0,0.06790123456790122,28.45061728395061,0)" xlink:href="#aQ"/><use transform="matrix(0.06790123456790122,0,0,0.06790123456790122,36.53086419753085,0)" xlink:href="#aG"/></g><g id="ag"><use transform="matrix(0.06790123456790122,0,0,0.06790123456790122,0,0)" xlink:href="#aP"/><use transform="matrix(0.06790123456790122,0,0,0.06790123456790122,6.790123456790122,0)" xlink:href="#aL"/><use transform="matrix(0.06790123456790122,0,0,0.06790123456790122,20.370370370370367,0)" xlink:href="#aH"/><use transform="matrix(0.06790123456790122,0,0,0.06790123456790122,35.24074074074073,0)" xlink:href="#aJ"/><use transform="matrix(0.06790123456790122,0,0,0.06790123456790122,50.1111111111111,0)" xlink:href="#aV"/><use transform="matrix(0.06790123456790122,0,0,0.06790123456790122,63.69135802469134,0)" xlink:href="#aI"/><use transform="matrix(0.06790123456790122,0,0,0.06790123456790122,78.5617283950617,0)" xlink:href="#aB"/><use transform="matrix(0.06790123456790122,0,0,0.06790123456790122,92.14197530864195,0)" xlink:href="#aK"/><use transform="matrix(0.06790123456790122,0,0,0.06790123456790122,107.01234567901231,0)" xlink:href="#aN"/></g><path fill="#fc9432" d="M186 0v-106H76V0H24v-248h52v99h110v-99h50V0h-50" id="bB"/><path fill="#fc9432" d="M133-34C117-15 103 5 69 4 32 3 11-16 11-54c-1-60 55-63 116-61 1-26-3-47-28-47-18 1-26 9-28 27l-52-2c7-38 36-58 82-57s74 22 75 68l1 82c-1 14 12 18 25 15v27c-30 8-71 5-69-32zm-48 3c29 0 43-24 42-57-32 0-66-3-65 30 0 17 8 27 23 27" id="bC"/><path fill="#fc9432" d="M88-194c31-1 46 15 58 34l-1-101h50l1 261h-48c-2-10 0-23-3-31C134-8 116 4 84 4 32 4 16-41 15-95c0-56 19-97 73-99zm17 164c33 0 40-30 41-66 1-37-9-64-41-64s-38 30-39 65c0 43 13 65 39 65" id="bD"/><path fill="#fc9432" d="M135-194c53 0 70 44 70 98 0 56-19 98-73 100-31 1-45-17-59-34 3 33 2 69 2 105H25l-1-265h48c2 10 0 23 3 31 11-24 29-35 60-35zM114-30c33 0 39-31 40-66 0-38-9-64-40-64-56 0-55 130 0 130" id="bE"/><g id="ah"><use transform="matrix(0.06790123456790122,0,0,0.06790123456790122,0,0)" xlink:href="#bB"/><use transform="matrix(0.06790123456790122,0,0,0.06790123456790122,17.586419753086414,0)" xlink:href="#bC"/><use transform="matrix(0.06790123456790122,0,0,0.06790123456790122,31.166666666666657,0)" xlink:href="#bD"/><use transform="matrix(0.06790123456790122,0,0,0.06790123456790122,46.037037037037024,0)" xlink:href="#be"/><use transform="matrix(0.06790123456790122,0,0,0.06790123456790122,60.90740740740739,0)" xlink:href="#be"/><use transform="matrix(0.06790123456790122,0,0,0.06790123456790122,75.77777777777776,0)" xlink:href="#bE"/><use transform="matrix(0.06790123456790122,0,0,0.06790123456790122,90.64814814814812,0)" xlink:href="#ba"/></g><path fill="#fc9432" d="M230 0l2-204L168 0h-37L68-204 70 0H24v-248h70l56 185 57-185h69V0h-46" id="bF"/><path fill="#fc9432" d="M240-174c0 40-23 61-54 70L253 0h-59l-57-94H76V0H24v-248c93 4 217-23 216 74zM76-134c48-2 112 12 112-38 0-48-66-32-112-35v73" id="bG"/><path fill="#fc9432" d="M85 4C-2 5 27-109 22-190h50c7 57-23 150 33 157 60-5 35-97 40-157h50l1 190h-47c-2-12 1-28-3-38-12 25-28 42-61 42" id="bH"/><path fill="#fc9432" d="M190-63c-7 42-38 67-86 67-59 0-84-38-90-98-12-110 154-137 174-36l-49 2c-2-19-15-32-35-32-30 0-35 28-38 64-6 74 65 87 74 30" id="bI"/><g id="ai"><use transform="matrix(0.06790123456790122,0,0,0.06790123456790122,0,0)" xlink:href="#bF"/><use transform="matrix(0.06790123456790122,0,0,0.06790123456790122,20.302469135802465,0)" xlink:href="#bC"/><use transform="matrix(0.06790123456790122,0,0,0.06790123456790122,33.88271604938271,0)" xlink:href="#bE"/><use transform="matrix(0.06790123456790122,0,0,0.06790123456790122,48.753086419753075,0)" xlink:href="#bG"/><use transform="matrix(0.06790123456790122,0,0,0.06790123456790122,66.33950617283949,0)" xlink:href="#aX"/><use transform="matrix(0.06790123456790122,0,0,0.06790123456790122,79.91975308641973,0)" xlink:href="#bD"/><use transform="matrix(0.06790123456790122,0,0,0.06790123456790122,94.7901234567901,0)" xlink:href="#bH"/><use transform="matrix(0.06790123456790122,0,0,0.06790123456790122,109.66049382716047,0)" xlink:href="#bI"/><use transform="matrix(0.06790123456790122,0,0,0.06790123456790122,123.2407407407407,0)" xlink:href="#aX"/><use transform="matrix(0.06790123456790122,0,0,0.06790123456790122,136.82098765432096,0)" xlink:href="#ba"/></g><path fill="#fc9432" d="M182-130c37 4 62 22 62 59C244 23 116-4 24 0v-248c84 5 203-23 205 63 0 31-19 50-47 55zM76-148c40-3 101 13 101-30 0-44-60-28-101-31v61zm0 110c48-3 116 14 116-37 0-48-69-32-116-35v72" id="bJ"/><path fill="#fc9432" d="M25-224v-37h50v37H25zM25 0v-190h50V0H25" id="bK"/><path fill="#fc9432" d="M195-6C206 82 75 100 31 46c-4-6-6-13-8-21l49-6c3 16 16 24 34 25 40 0 42-37 40-79-11 22-30 35-61 35-53 0-70-43-70-97 0-56 18-96 73-97 30 0 46 14 59 34l2-30h47zm-90-29c32 0 41-27 41-63 0-35-9-62-40-62-32 0-39 29-40 63 0 36 9 62 39 62" id="bL"/><path fill="#fc9432" d="M24-248c120-7 223 5 221 122C244-46 201 0 124 0H24v-248zM76-40c74 7 117-18 117-86 0-67-45-88-117-82v168" id="bM"/><g id="aj"><use transform="matrix(0.06790123456790122,0,0,0.06790123456790122,0,0)" xlink:href="#bJ"/><use transform="matrix(0.06790123456790122,0,0,0.06790123456790122,17.586419753086414,0)" xlink:href="#bK"/><use transform="matrix(0.06790123456790122,0,0,0.06790123456790122,24.376543209876537,0)" xlink:href="#bL"/><use transform="matrix(0.06790123456790122,0,0,0.06790123456790122,39.246913580246904,0)" xlink:href="#bM"/><use transform="matrix(0.06790123456790122,0,0,0.06790123456790122,56.833333333333314,0)" xlink:href="#bC"/><use transform="matrix(0.06790123456790122,0,0,0.06790123456790122,70.41358024691354,0)" xlink:href="#aY"/><use transform="matrix(0.06790123456790122,0,0,0.06790123456790122,78.4938271604938,0)" xlink:href="#bC"/></g><path fill="#fc9432" d="M144 0l-44-69L55 0H2l70-98-66-92h53l41 62 40-62h54l-67 91 71 99h-54" id="bN"/><g id="ak"><use transform="matrix(0.06790123456790122,0,0,0.06790123456790122,0,0)" xlink:href="#aX"/><use transform="matrix(0.06790123456790122,0,0,0.06790123456790122,13.580246913580243,0)" xlink:href="#bN"/><use transform="matrix(0.06790123456790122,0,0,0.06790123456790122,27.160493827160487,0)" xlink:href="#bE"/><use transform="matrix(0.06790123456790122,0,0,0.06790123456790122,42.03086419753085,0)" xlink:href="#aX"/><use transform="matrix(0.06790123456790122,0,0,0.06790123456790122,55.6111111111111,0)" xlink:href="#bh"/><use transform="matrix(0.06790123456790122,0,0,0.06790123456790122,65.11728395061726,0)" xlink:href="#aY"/><use transform="matrix(0.06790123456790122,0,0,0.06790123456790122,73.1975308641975,0)" xlink:href="#bK"/><use transform="matrix(0.06790123456790122,0,0,0.06790123456790122,79.98765432098763,0)" xlink:href="#aZ"/><use transform="matrix(0.06790123456790122,0,0,0.06790123456790122,93.56790123456787,0)" xlink:href="#aX"/></g><g id="al"><use transform="matrix(0.06790123456790122,0,0,0.06790123456790122,0,0)" xlink:href="#aw"/><use transform="matrix(0.06790123456790122,0,0,0.06790123456790122,13.580246913580243,0)" xlink:href="#ax"/><use transform="matrix(0.06790123456790122,0,0,0.06790123456790122,27.160493827160487,0)" xlink:href="#ax"/><use transform="matrix(0.06790123456790122,0,0,0.06790123456790122,40.74074074074073,0)" xlink:href="#bz"/></g><path fill="#3a414a" d="M142-158h-39l-4-90h48zm-75 0H28l-4-90h48" id="bO"/><g id="am"><use transform="matrix(0.06790123456790122,0,0,0.06790123456790122,0,0)" xlink:href="#bO"/><use transform="matrix(0.06790123456790122,0,0,0.06790123456790122,11.543209876543207,0)" xlink:href="#az"/><use transform="matrix(0.06790123456790122,0,0,0.06790123456790122,29.12962962962962,0)" xlink:href="#aL"/><use transform="matrix(0.06790123456790122,0,0,0.06790123456790122,42.70987654320986,0)" xlink:href="#aQ"/><use transform="matrix(0.06790123456790122,0,0,0.06790123456790122,50.790123456790106,0)" xlink:href="#aL"/></g><g id="an"><use transform="matrix(0.06790123456790122,0,0,0.06790123456790122,0,0)" xlink:href="#bu"/><use transform="matrix(0.06790123456790122,0,0,0.06790123456790122,16.29629629629629,0)" xlink:href="#aV"/><use transform="matrix(0.06790123456790122,0,0,0.06790123456790122,29.876543209876534,0)" xlink:href="#aE"/><use transform="matrix(0.06790123456790122,0,0,0.06790123456790122,36.66666666666666,0)" xlink:href="#aB"/><use transform="matrix(0.06790123456790122,0,0,0.06790123456790122,50.246913580246904,0)" xlink:href="#aJ"/><use transform="matrix(0.06790123456790122,0,0,0.06790123456790122,65.11728395061726,0)" xlink:href="#aV"/><use transform="matrix(0.06790123456790122,0,0,0.06790123456790122,78.6975308641975,0)" xlink:href="#aB"/><use transform="matrix(0.06790123456790122,0,0,0.06790123456790122,92.27777777777774,0)" xlink:href="#bO"/></g><g id="ao"><use transform="matrix(0.06790123456790122,0,0,0.06790123456790122,0,0)" xlink:href="#aD"/><use transform="matrix(0.06790123456790122,0,0,0.06790123456790122,14.870370370370367,0)" xlink:href="#aB"/><use transform="matrix(0.06790123456790122,0,0,0.06790123456790122,28.45061728395061,0)" xlink:href="#aQ"/><use transform="matrix(0.06790123456790122,0,0,0.06790123456790122,36.53086419753085,0)" xlink:href="#aG"/></g><g id="ap"><use transform="matrix(0.06790123456790122,0,0,0.06790123456790122,0,0)" xlink:href="#aV"/><use transform="matrix(0.06790123456790122,0,0,0.06790123456790122,13.580246913580243,0)" xlink:href="#aR"/><use transform="matrix(0.06790123456790122,0,0,0.06790123456790122,28.45061728395061,0)" xlink:href="#aE"/><use transform="matrix(0.06790123456790122,0,0,0.06790123456790122,35.24074074074073,0)" xlink:href="#aJ"/><use transform="matrix(0.06790123456790122,0,0,0.06790123456790122,50.1111111111111,0)" xlink:href="#aB"/><use transform="matrix(0.06790123456790122,0,0,0.06790123456790122,63.69135802469134,0)" xlink:href="#aK"/><use transform="matrix(0.06790123456790122,0,0,0.06790123456790122,78.5617283950617,0)" xlink:href="#aN"/></g><path fill="#fc9432" d="M169-182c-1-43-94-46-97-3 18 66 151 10 154 114 3 95-165 93-204 36-6-8-10-19-12-30l50-8c3 46 112 56 116 5-17-69-150-10-154-114-4-87 153-88 188-35 5 8 8 18 10 28" id="bP"/><path fill="#fc9432" d="M140-251c80 0 125 45 125 126 0 70-33 111-92 124 6 28 34 38 68 31l-1 36C177 83 129 55 120 2 51-6 15-50 15-125c0-81 44-126 125-126zm-1 214c52 0 73-35 73-88 0-50-21-86-72-86-52 0-73 35-73 86s22 88 72 88" id="bQ"/><path fill="#fc9432" d="M24 0v-248h52v208h133V0H24" id="bR"/><g id="aq"><use transform="matrix(0.06790123456790122,0,0,0.06790123456790122,0,0)" xlink:href="#bP"/><use transform="matrix(0.06790123456790122,0,0,0.06790123456790122,16.29629629629629,0)" xlink:href="#bQ"/><use transform="matrix(0.06790123456790122,0,0,0.06790123456790122,35.30864197530863,0)" xlink:href="#bR"/><use transform="matrix(0.06790123456790122,0,0,0.06790123456790122,50.179012345679,0)" xlink:href="#ba"/></g><g id="ar"><use transform="matrix(0.06790123456790122,0,0,0.06790123456790122,0,0)" xlink:href="#aZ"/><use transform="matrix(0.06790123456790122,0,0,0.06790123456790122,13.580246913580243,0)" xlink:href="#aY"/><use transform="matrix(0.06790123456790122,0,0,0.06790123456790122,21.660493827160487,0)" xlink:href="#bC"/><use transform="matrix(0.06790123456790122,0,0,0.06790123456790122,35.24074074074073,0)" xlink:href="#aY"/><use transform="matrix(0.06790123456790122,0,0,0.06790123456790122,43.32098765432097,0)" xlink:href="#bK"/><use transform="matrix(0.06790123456790122,0,0,0.06790123456790122,50.1111111111111,0)" xlink:href="#aZ"/><use transform="matrix(0.06790123456790122,0,0,0.06790123456790122,63.69135802469134,0)" xlink:href="#aY"/><use transform="matrix(0.06790123456790122,0,0,0.06790123456790122,71.77160493827158,0)" xlink:href="#bK"/><use transform="matrix(0.06790123456790122,0,0,0.06790123456790122,78.5617283950617,0)" xlink:href="#bI"/><use transform="matrix(0.06790123456790122,0,0,0.06790123456790122,92.14197530864195,0)" xlink:href="#bC"/><use transform="matrix(0.06790123456790122,0,0,0.06790123456790122,105.72222222222219,0)" xlink:href="#bj"/></g><g id="as"><use transform="matrix(0.06790123456790122,0,0,0.06790123456790122,0,0)" xlink:href="#bC"/><use transform="matrix(0.06790123456790122,0,0,0.06790123456790122,13.580246913580243,0)" xlink:href="#bf"/><use transform="matrix(0.06790123456790122,0,0,0.06790123456790122,28.45061728395061,0)" xlink:href="#bC"/><use transform="matrix(0.06790123456790122,0,0,0.06790123456790122,42.03086419753085,0)" xlink:href="#bj"/><use transform="matrix(0.06790123456790122,0,0,0.06790123456790122,48.82098765432097,0)" xlink:href="#bc"/><use transform="matrix(0.06790123456790122,0,0,0.06790123456790122,62.40123456790121,0)" xlink:href="#aZ"/><use transform="matrix(0.06790123456790122,0,0,0.06790123456790122,75.98148148148145,0)" xlink:href="#bK"/><use transform="matrix(0.06790123456790122,0,0,0.06790123456790122,82.77160493827158,0)" xlink:href="#aZ"/></g><g id="at"><use transform="matrix(0.06790123456790122,0,0,0.06790123456790122,0,0)" xlink:href="#bC"/><use transform="matrix(0.06790123456790122,0,0,0.06790123456790122,13.580246913580243,0)" xlink:href="#bf"/><use transform="matrix(0.06790123456790122,0,0,0.06790123456790122,28.45061728395061,0)" xlink:href="#bD"/></g><path fill="#fc9432" d="M135-194c52 0 70 43 70 98 0 56-19 99-73 100-30 1-46-15-58-35L72 0H24l1-261h50v104c11-23 29-37 60-37zM114-30c31 0 40-27 40-66 0-37-7-63-39-63s-41 28-41 65c0 36 8 64 40 64" id="bS"/><g id="au"><use transform="matrix(0.06790123456790122,0,0,0.06790123456790122,0,0)" xlink:href="#bS"/><use transform="matrix(0.06790123456790122,0,0,0.06790123456790122,14.870370370370367,0)" xlink:href="#bC"/><use transform="matrix(0.06790123456790122,0,0,0.06790123456790122,28.45061728395061,0)" xlink:href="#aZ"/><use transform="matrix(0.06790123456790122,0,0,0.06790123456790122,42.03086419753085,0)" xlink:href="#bK"/><use transform="matrix(0.06790123456790122,0,0,0.06790123456790122,48.82098765432097,0)" xlink:href="#bI"/></g><g id="av"><use transform="matrix(0.06790123456790122,0,0,0.06790123456790122,0,0)" xlink:href="#bF"/><use transform="matrix(0.06790123456790122,0,0,0.06790123456790122,20.302469135802465,0)" xlink:href="#bR"/></g></defs></g></svg>